<svg width="32" height="32" viewBox="0 0 32 32" fill="none" xmlns="http://www.w3.org/2000/svg">
<path d="M5.042 32H23.952C24.4824 32 24.9911 31.7893 25.3662 31.4142C25.7413 31.0391 25.952 30.5304 25.952 30V9C25.952 8.73478 25.8466 8.48043 25.6591 8.29289C25.4716 8.10536 25.2172 8 24.952 8H8C7.95 8 7.852 8.008 7.758 8.014L5.042 8C3.364 8 2 6.718 2 5.042C2 3.364 3.322 2 5 2H28V25C28 25.552 28.4 26 28.954 26C29.508 26 30 25.552 30 25V1C30 0.448 29.506 0 28.954 0H5.042C3.71841 0.000404983 2.4482 0.52187 1.50613 1.45159C0.564054 2.38131 0.025872 3.64454 0.008 4.968L0 4.958V26.958C0.000265121 28.2951 0.531559 29.5774 1.47706 30.5229C2.42256 31.4684 3.70486 31.9997 5.042 32Z" fill="black"/>
</svg>
